<?xml version="1.0" encoding="UTF-8"?>
<!DOCTYPE svg PUBLIC "-//W3C//DTD SVG 1.1//EN" "http://www.w3.org/Graphics/SVG/1.1/DTD/svg11.dtd">
<svg xmlns="http://www.w3.org/2000/svg" version="1.1" width="90px" height="90px" style="shape-rendering:geometricPrecision; text-rendering:geometricPrecision; image-rendering:optimizeQuality; fill-rule:evenodd; clip-rule:evenodd" xmlns:xlink="http://www.w3.org/1999/xlink">
<g><path style="opacity:0.872" fill="#000000" d="M 23.5,17.5 C 25.604,17.2011 27.604,17.5344 29.5,18.5C 34.9015,33.8714 40.4015,49.2047 46,64.5C 47.5095,65.0897 49.0095,65.7564 50.5,66.5C 51.8333,67.8333 51.8333,69.1667 50.5,70.5C 45.5,71.8333 40.5,71.8333 35.5,70.5C 34.289,67.5855 35.289,65.5855 38.5,64.5C 37.4719,57.6703 33.4719,55.0036 26.5,56.5C 19.5281,55.0036 15.5281,57.6703 14.5,64.5C 17.711,65.5855 18.711,67.5855 17.5,70.5C 12.5,71.8333 7.5,71.8333 2.5,70.5C 1.16667,69.1667 1.16667,67.8333 2.5,66.5C 3.99051,65.7564 5.49051,65.0897 7,64.5C 12.8032,48.923 18.3032,33.2563 23.5,17.5 Z M 25.5,32.5 C 26.4972,32.4701 27.1639,32.9701 27.5,34C 29.2316,39.4579 31.2316,44.7912 33.5,50C 28.8333,50.6667 24.1667,50.6667 19.5,50C 22.1969,44.4094 24.1969,38.5761 25.5,32.5 Z"/></g>
<g><path style="opacity:0.86" fill="#000000" d="M 63.5,35.5 C 69.7013,34.285 74.8679,35.9517 79,40.5C 80.2635,47.7282 80.9301,55.0615 81,62.5C 82.3618,64.4357 84.1952,65.769 86.5,66.5C 87.8694,69.7374 86.7027,71.404 83,71.5C 80.6212,71.5175 78.4545,70.8509 76.5,69.5C 69.7582,72.2762 63.0916,72.1095 56.5,69C 55.2986,68.0975 54.4652,66.9308 54,65.5C 52.2255,59.4884 53.7255,54.6551 58.5,51C 62.9809,49.0462 67.6475,47.7128 72.5,47C 73.727,45.4126 73.3937,44.0793 71.5,43C 70.3333,42.8333 69.1667,42.6667 68,42.5C 64.3058,43.8658 60.4725,44.5325 56.5,44.5C 56.2011,42.396 56.5344,40.396 57.5,38.5C 59.604,37.4805 61.604,36.4805 63.5,35.5 Z M 73.5,53.5 C 74.1558,54.6216 74.4892,55.9549 74.5,57.5C 74.7543,62.745 72.2543,65.0783 67,64.5C 60.7325,64.5958 59.2325,62.0958 62.5,57C 66.2541,55.6912 69.9207,54.5246 73.5,53.5 Z"/></g>
</svg>
