<?xml version="1.0" encoding="UTF-8"?>
<!DOCTYPE svg PUBLIC "-//W3C//DTD SVG 1.1//EN" "http://www.w3.org/Graphics/SVG/1.1/DTD/svg11.dtd">
<svg xmlns="http://www.w3.org/2000/svg" version="1.1" width="100px" height="100px" style="shape-rendering:geometricPrecision; text-rendering:geometricPrecision; image-rendering:optimizeQuality; fill-rule:evenodd; clip-rule:evenodd" xmlns:xlink="http://www.w3.org/1999/xlink">
<g><path style="opacity:0.822" fill="#000000" d="M 58.5,14.5 C 79.377,14.2678 87.377,24.2678 82.5,44.5C 79.5,45.8333 76.5,45.8333 73.5,44.5C 79.9265,34.2793 77.5931,26.7793 66.5,22C 62.8798,21.1593 59.5464,21.826 56.5,24C 50.922,28.9071 46.0887,34.4071 42,40.5C 41.0885,44.4525 41.7552,48.1191 44,51.5C 46.722,54.4436 49.8887,56.7769 53.5,58.5C 51.0779,64.1877 47.4112,65.0211 42.5,61C 33.7324,52.3138 32.2324,42.4804 38,31.5C 43.88,24.4325 50.7133,18.7658 58.5,14.5 Z"/></g>
<g><path style="opacity:0.772" fill="#000000" d="M 48.5,35.5 C 57.3067,36.8046 62.1401,41.8046 63,50.5C 61.3333,52.1667 59.6667,53.8333 58,55.5C 56.5738,48.2385 52.4071,43.2385 45.5,40.5C 46.7629,38.9713 47.7629,37.3046 48.5,35.5 Z"/></g>
<g><path style="opacity:0.816" fill="#000000" d="M 29.5,39.5 C 32.1646,46.5311 30.3312,52.1977 24,56.5C 19.4543,67.7407 23.121,74.7407 35,77.5C 37.6342,77.0664 40.1342,76.233 42.5,75C 46.0152,71.3176 49.6819,67.8176 53.5,64.5C 54.6578,67.4466 55.1578,70.4466 55,73.5C 44.1716,86.4829 32.1716,87.8162 19,77.5C 13.4174,69.0734 13.0841,60.4067 18,51.5C 22.037,47.631 25.8704,43.631 29.5,39.5 Z"/></g>
<g><path style="opacity:0.897" fill="#000000" d="M 70.5,49.5 C 85.0358,47.05 93.3691,53.05 95.5,67.5C 92.1249,84.1898 82.4582,89.3564 66.5,83C 56.6609,73.7778 55.9942,63.9445 64.5,53.5C 66.5654,52.1433 68.5654,50.81 70.5,49.5 Z M 76.5,57.5 C 77.1174,57.6107 77.6174,57.944 78,58.5C 78.4966,60.8098 78.6633,63.1432 78.5,65.5C 80.8568,65.3367 83.1902,65.5034 85.5,66C 86.8333,67 86.8333,68 85.5,69C 83.1902,69.4966 80.8568,69.6633 78.5,69.5C 77.699,80.0492 76.3657,80.0492 74.5,69.5C 72.4727,69.6621 70.4727,69.4955 68.5,69C 67.1667,68 67.1667,67 68.5,66C 70.4727,65.5045 72.4727,65.3379 74.5,65.5C 74.2826,62.5794 74.9493,59.9128 76.5,57.5 Z"/></g>
</svg>
