<?xml version="1.0" encoding="UTF-8"?>
<!DOCTYPE svg PUBLIC "-//W3C//DTD SVG 1.1//EN" "http://www.w3.org/Graphics/SVG/1.1/DTD/svg11.dtd">
<svg xmlns="http://www.w3.org/2000/svg" version="1.1" width="100px" height="100px" style="shape-rendering:geometricPrecision; text-rendering:geometricPrecision; image-rendering:optimizeQuality; fill-rule:evenodd; clip-rule:evenodd" xmlns:xlink="http://www.w3.org/1999/xlink">
<g><path style="opacity:0.767" fill="#020002" d="M 15.5,21.5 C 22.8333,21.5 30.1667,21.5 37.5,21.5C 31.1667,22.1667 24.8333,22.8333 18.5,23.5C 17.391,23.5569 16.391,23.8902 15.5,24.5C 13.0158,26.1198 11.5158,28.4531 11,31.5C 10.5012,35.4862 10.3345,39.4862 10.5,43.5C 10.19,46.7131 10.5233,49.7131 11.5,52.5C 11.5,58.5 11.5,64.5 11.5,70.5C 11.3284,71.4916 11.6618,72.1583 12.5,72.5C 12.5,73.1667 12.8333,73.5 13.5,73.5C 13.5,74.1667 13.8333,74.5 14.5,74.5C 14.8417,75.3382 15.5084,75.6716 16.5,75.5C 28.1667,75.5 39.8333,75.5 51.5,75.5C 61.5,76.8333 71.5,76.8333 81.5,75.5C 83.9115,75.8633 85.4115,74.8633 86,72.5C 86.4994,66.8431 86.6661,61.1764 86.5,55.5C 87.1667,53.5 87.8333,51.5 88.5,49.5C 88.5,57.1667 88.5,64.8333 88.5,72.5C 88.1601,75.6748 86.4934,77.8415 83.5,79C 59.0752,81.1148 34.7418,80.7815 10.5,78C 9.29857,77.0975 8.46524,75.9308 8,74.5C 6.64363,60.8558 6.3103,47.1892 7,33.5C 7.36041,27.6546 10.1937,23.6546 15.5,21.5 Z"/></g>
<g><path style="opacity:1" fill="#46254d" d="M 48.5,21.5 C 51.5184,21.3354 54.5184,21.502 57.5,22C 51.2584,23.3696 44.9251,23.8696 38.5,23.5C 41.8333,22.8333 45.1667,22.1667 48.5,21.5 Z"/></g>
<g><path style="opacity:1" fill="#221226" d="M 37.5,21.5 C 41.1667,21.5 44.8333,21.5 48.5,21.5C 45.1667,22.1667 41.8333,22.8333 38.5,23.5C 32.5,23.5 26.5,23.5 20.5,23.5C 19.8333,23.5 19.1667,23.5 18.5,23.5C 24.8333,22.8333 31.1667,22.1667 37.5,21.5 Z"/></g>
<g><path style="opacity:1" fill="#805ca0" d="M 18.5,23.5 C 19.1667,23.5 19.8333,23.5 20.5,23.5C 31.5367,29.7717 42.37,36.4383 53,43.5C 62.9024,37.1302 72.7357,30.6302 82.5,24C 89.1617,23.5956 90.1617,25.9289 85.5,31C 74.857,38.2324 64.0237,45.0658 53,51.5C 43.4732,46.3148 34.3065,40.4815 25.5,34C 22.5833,32.4725 19.5833,31.1392 16.5,30C 15.5939,28.3005 15.2606,26.4672 15.5,24.5C 16.391,23.8902 17.391,23.5569 18.5,23.5 Z"/></g>
<g><path style="opacity:0.991" fill="#723d7d" d="M 88.5,72.5 C 88.5,64.8333 88.5,57.1667 88.5,49.5C 88.6662,43.1579 88.4995,36.8246 88,30.5C 86.8162,38.7918 86.3162,47.1251 86.5,55.5C 86.6661,61.1764 86.4994,66.8431 86,72.5C 85.4115,74.8633 83.9115,75.8633 81.5,75.5C 71.5,75.5 61.5,75.5 51.5,75.5C 39.8333,75.5 28.1667,75.5 16.5,75.5C 16.1583,74.6618 15.4916,74.3284 14.5,74.5C 13.8333,74.5 13.5,74.1667 13.5,73.5C 12.8333,73.5 12.5,73.1667 12.5,72.5C 12.6716,71.5084 12.3382,70.8417 11.5,70.5C 11.5,64.5 11.5,58.5 11.5,52.5C 11.81,49.2869 11.4767,46.2869 10.5,43.5C 10.3345,39.4862 10.5012,35.4862 11,31.5C 11.5158,28.4531 13.0158,26.1198 15.5,24.5C 15.2606,26.4672 15.5939,28.3005 16.5,30C 19.5833,31.1392 22.5833,32.4725 25.5,34C 34.3065,40.4815 43.4732,46.3148 53,51.5C 64.0237,45.0658 74.857,38.2324 85.5,31C 90.1617,25.9289 89.1617,23.5956 82.5,24C 72.7357,30.6302 62.9024,37.1302 53,43.5C 42.37,36.4383 31.5367,29.7717 20.5,23.5C 26.5,23.5 32.5,23.5 38.5,23.5C 44.9251,23.8696 51.2584,23.3696 57.5,22C 54.5184,21.502 51.5184,21.3354 48.5,21.5C 44.8333,21.5 41.1667,21.5 37.5,21.5C 30.1667,21.5 22.8333,21.5 15.5,21.5C 16.6002,20.4415 17.9336,19.6082 19.5,19C 39.5,18.3333 59.5,18.3333 79.5,19C 82.557,19.2565 85.557,19.7565 88.5,20.5C 89.5836,21.6651 90.4169,22.9984 91,24.5C 91.6316,39.5179 91.2983,54.5179 90,69.5C 89.7679,70.7375 89.2679,71.7375 88.5,72.5 Z"/></g>
<g><path style="opacity:1" fill="#3d2043" d="M 88.5,49.5 C 87.8333,51.5 87.1667,53.5 86.5,55.5C 86.3162,47.1251 86.8162,38.7918 88,30.5C 88.4995,36.8246 88.6662,43.1579 88.5,49.5 Z"/></g>
</svg>
