<?xml version="1.0" encoding="UTF-8"?>
<!DOCTYPE svg PUBLIC "-//W3C//DTD SVG 1.1//EN" "http://www.w3.org/Graphics/SVG/1.1/DTD/svg11.dtd">
<svg xmlns="http://www.w3.org/2000/svg" version="1.1" width="100px" height="100px" style="shape-rendering:geometricPrecision; text-rendering:geometricPrecision; image-rendering:optimizeQuality; fill-rule:evenodd; clip-rule:evenodd" xmlns:xlink="http://www.w3.org/1999/xlink">
<g><path style="opacity:0.911" fill="#000000" d="M 11.5,-0.5 C 27.5,-0.5 43.5,-0.5 59.5,-0.5C 68.4644,8.96503 77.6311,18.2984 87,27.5C 87.3333,38.5 87.6667,49.5 88,60.5C 93.4135,63.0782 97.2468,67.0782 99.5,72.5C 99.5,77.1667 99.5,81.8333 99.5,86.5C 98.0242,88.7686 96.5242,91.1019 95,93.5C 92.2639,95.7519 89.4305,97.7519 86.5,99.5C 81.8333,99.5 77.1667,99.5 72.5,99.5C 70.8998,98.3556 69.2331,97.1889 67.5,96C 48.8363,95.5001 30.1696,95.3334 11.5,95.5C 11.5,63.5 11.5,31.5 11.5,-0.5 Z M 15.5,3.5 C 28.8333,3.5 42.1667,3.5 55.5,3.5C 55.5,12.8333 55.5,22.1667 55.5,31.5C 64.8333,31.5 74.1667,31.5 83.5,31.5C 83.5,40.8333 83.5,50.1667 83.5,59.5C 65.3669,58.8015 57.5335,67.4682 60,85.5C 60.4497,87.519 61.283,89.3523 62.5,91C 46.8369,91.4999 31.1702,91.6666 15.5,91.5C 15.5,62.1667 15.5,32.8333 15.5,3.5 Z M 59.5,7.5 C 66.2982,13.7973 72.9648,20.2973 79.5,27C 72.8417,27.4996 66.175,27.6663 59.5,27.5C 59.5,20.8333 59.5,14.1667 59.5,7.5 Z M 74.5,64.5 C 91.7649,64.2567 97.5982,72.2567 92,88.5C 85.7488,95.0107 78.5821,96.1773 70.5,92C 63.9893,85.7488 62.8227,78.5821 67,70.5C 69.1141,67.8792 71.6141,65.8792 74.5,64.5 Z"/></g>
<g><path style="opacity:1" fill="#000000" d="M 77.5,69.5 C 78.8333,69.5 80.1667,69.5 81.5,69.5C 81.5,72.1667 81.5,74.8333 81.5,77.5C 84.1667,77.5 86.8333,77.5 89.5,77.5C 89.5,78.8333 89.5,80.1667 89.5,81.5C 86.8333,81.5 84.1667,81.5 81.5,81.5C 81.5,84.1667 81.5,86.8333 81.5,89.5C 80.1667,89.5 78.8333,89.5 77.5,89.5C 77.5,86.8333 77.5,84.1667 77.5,81.5C 74.8333,81.5 72.1667,81.5 69.5,81.5C 69.5,80.1667 69.5,78.8333 69.5,77.5C 72.1667,77.5 74.8333,77.5 77.5,77.5C 77.5,74.8333 77.5,72.1667 77.5,69.5 Z"/></g>
</svg>
